<svg width="30" height="31" viewBox="0 0 30 31" fill="none" xmlns="http://www.w3.org/2000/svg">
<path d="M4.98442 26.7252C4.87549 26.6161 4.72431 26.5535 4.57021 26.5535C4.4161 26.5535 4.26492 26.6161 4.15594 26.7252C4.04695 26.8342 3.98425 26.9853 3.98425 27.1394C3.98425 27.2935 4.04689 27.4447 4.15594 27.5536C4.26492 27.6626 4.4161 27.7254 4.57021 27.7254C4.72431 27.7254 4.87549 27.6627 4.98442 27.5536C5.0934 27.4447 5.15616 27.2935 5.15616 27.1394C5.15616 26.9853 5.09346 26.8341 4.98442 26.7252Z" fill="#FFBB01"/>
<path d="M27.5116 10.7877C27.4026 10.6786 27.252 10.616 27.0973 10.616C26.9432 10.616 26.792 10.6786 26.683 10.7877C26.5741 10.8966 26.5114 11.0478 26.5114 11.2019C26.5114 11.356 26.574 11.5072 26.683 11.6161C26.792 11.7251 26.9432 11.7879 27.0973 11.7879C27.252 11.7879 27.4026 11.7252 27.5116 11.6161C27.6211 11.5072 27.6838 11.356 27.6838 11.2019C27.6838 11.0478 27.6211 10.8966 27.5116 10.7877Z" fill="#FFBB01"/>
<path d="M29.8284 0.239985C29.7185 0.130119 29.5694 0.0683594 29.4139 0.0683594L14.9999 0.0691211C14.6763 0.0691211 14.414 0.331511 14.414 0.655073V2.33072L8.85978 3.81898C8.54717 3.90277 8.36166 4.22405 8.44545 4.5366L11.3241 15.2796L8.83382 17.7698C8.51688 17.307 7.98471 17.0027 7.38277 17.0027H1.7578C0.788516 17.0027 0 17.7912 0 18.7605V28.3113C0 29.2805 0.788516 30.0691 1.7578 30.0691H7.38282C8.20626 30.0691 8.89898 29.4998 9.08882 28.7343L9.78552 29.3419C10.3234 29.8109 11.0124 30.0692 11.7261 30.0692H29.414C29.7376 30.0692 30 29.8068 30 29.4832V0.654312C29.9999 0.498917 29.9382 0.349851 29.8284 0.239985ZM7.96866 28.3113C7.96866 28.6344 7.7058 28.8973 7.38271 28.8973H1.75774C1.43465 28.8973 1.17179 28.6344 1.17179 28.3113V18.7605C1.17179 18.4374 1.43465 18.1746 1.75774 18.1746H3.9843V24.9245C3.9843 25.248 4.24669 25.5104 4.57025 25.5104C4.89382 25.5104 5.1562 25.248 5.1562 24.9245V18.1746H7.38277C7.70586 18.1746 7.96872 18.4374 7.96872 18.7605V28.3113H7.96866ZM9.72904 4.79928L14.414 3.54394V5.71518L14.0213 5.82042C13.8711 5.86067 13.7432 5.95882 13.6655 6.09341C13.5878 6.22801 13.5667 6.38791 13.6069 6.53803C13.8321 7.37835 13.3316 8.24515 12.4913 8.47033C12.341 8.51064 12.2129 8.60897 12.1352 8.74385C12.0576 8.87868 12.0367 9.03888 12.0773 9.18912L14.3613 17.6466H13.1853L12.5792 15.2756C12.5599 15.2002 12.5262 15.1306 12.481 15.0701L9.72904 4.79928ZM14.414 8.4023V13.3466L13.3452 9.3894C13.7917 9.15888 14.157 8.81399 14.414 8.4023ZM22.832 28.8972H11.726C11.2956 28.8972 10.88 28.7415 10.5556 28.4586L9.14056 27.2246V19.1204L11.6987 16.5623L12.1627 18.3776C12.229 18.637 12.4626 18.8184 12.7303 18.8184L24.2504 18.8191C24.7028 18.8191 25.0707 19.187 25.0707 19.6394C25.0707 20.0918 24.7028 20.4597 24.2504 20.4597H18.3475C18.024 20.4597 17.7616 20.7221 17.7616 21.0457C17.7616 21.3692 18.024 21.6316 18.3475 21.6316H26.0844C26.5368 21.6316 26.9048 21.9996 26.9048 22.452C26.9048 22.9043 26.5368 23.2723 26.0844 23.2723H18.3475C18.024 23.2723 17.7616 23.5347 17.7616 23.8583C17.7616 24.1818 18.024 24.4442 18.3475 24.4442H24.8307C25.283 24.4442 25.651 24.8122 25.651 25.2645C25.651 25.7169 25.283 26.0849 24.8307 26.0849H18.3475C18.024 26.0849 17.7616 26.3473 17.7616 26.6708C17.7616 26.9944 18.024 27.2568 18.3475 27.2568H22.832C23.2843 27.2568 23.6523 27.6248 23.6523 28.0771C23.6523 28.5292 23.2843 28.8972 22.832 28.8972ZM28.8281 28.8972H28.828H24.6467C24.7604 28.6468 24.8242 28.3693 24.8242 28.0769C24.8242 27.7845 24.7604 27.5069 24.6467 27.2565H24.8307C25.9292 27.2565 26.8228 26.3629 26.8228 25.2644C26.8228 24.944 26.7464 24.6412 26.6114 24.3727C27.4549 24.141 28.0766 23.3679 28.0766 22.4519C28.0766 22.0075 27.9302 21.5967 27.6833 21.265V13.8386C27.6833 13.5151 27.4209 13.2527 27.0974 13.2527C26.7738 13.2527 26.5114 13.5151 26.5114 13.8386V20.5063C26.3737 20.4761 26.2309 20.4597 26.0843 20.4597H26.0651C26.1787 20.2094 26.2425 19.9318 26.2425 19.6394C26.2425 18.5409 25.3488 17.6472 24.2503 17.6472H23.3084C24.3086 17.2183 25.011 16.2242 25.011 15.0687C25.011 13.5225 23.7531 12.2645 22.2068 12.2645C20.6606 12.2645 19.4026 13.5225 19.4026 15.0687C19.4026 16.2242 20.1051 17.2183 21.1052 17.6472H17.9023V6.50581C18.949 6.2777 19.775 5.4518 20.003 4.40499H24.4106C24.6387 5.4518 25.4646 6.2777 26.5114 6.50581V8.32753C26.5114 8.6511 26.7737 8.91349 27.0973 8.91349C27.4209 8.91349 27.6833 8.6511 27.6833 8.32753V5.98267C27.6833 5.65911 27.4209 5.39672 27.0973 5.39672C26.2273 5.39672 25.5197 4.68895 25.5197 3.81904C25.5197 3.49548 25.2573 3.23309 24.9337 3.23309H19.4799C19.1564 3.23309 18.894 3.49548 18.894 3.81904C18.894 4.689 18.1863 5.39672 17.3164 5.39672C16.9928 5.39672 16.7304 5.65911 16.7304 5.98267V17.6472H15.5859V1.24091L28.8281 1.24026V28.8972ZM22.207 16.7011C21.3069 16.7011 20.5747 15.9688 20.5747 15.0688C20.5747 14.1688 21.3069 13.4365 22.207 13.4365C23.107 13.4365 23.8392 14.1687 23.8392 15.0687C23.8392 15.9688 23.107 16.7011 22.207 16.7011Z" fill="#FFBB01"/>
</svg>
