<svg width="30" height="26" viewBox="0 0 30 26" fill="none" xmlns="http://www.w3.org/2000/svg">
<path d="M19.7397 3.82581C19.0122 3.82581 18.3262 4.11198 17.8182 4.6109C17.3102 4.11198 16.6241 3.82581 15.8967 3.82581C14.383 3.82581 13.1515 5.05733 13.1515 6.57104C13.1515 7.95913 13.9347 9.37323 15.4164 10.6604C16.502 11.6034 17.575 12.1499 17.6201 12.1727C17.6824 12.2041 17.7503 12.2198 17.8182 12.2198C17.8861 12.2198 17.954 12.2041 18.0163 12.1727C18.0614 12.1499 19.1344 11.6034 20.22 10.6604C21.7017 9.37323 22.4849 7.95913 22.4849 6.57104C22.4849 5.05733 21.2534 3.82581 19.7397 3.82581ZM17.8182 11.28C17.0123 10.8243 14.0304 8.97491 14.0304 6.57104C14.0304 5.54196 14.8676 4.70471 15.8967 4.70471C16.523 4.70471 17.1045 5.01719 17.4521 5.54061C17.5335 5.66325 17.6709 5.73696 17.8182 5.73696C17.9654 5.73696 18.1028 5.66325 18.1843 5.54061C18.5319 5.01719 19.1133 4.70471 19.7397 4.70471C20.7688 4.70471 21.606 5.54196 21.606 6.57104C21.606 8.97491 18.624 10.8243 17.8182 11.28Z" fill="#FFBB01"/>
<path d="M26.7424 3.82581H24.3939C24.1512 3.82581 23.9545 4.02256 23.9545 4.26526C23.9545 4.50795 24.1512 4.70471 24.3939 4.70471H26.7424C26.9851 4.70471 27.1819 4.50795 27.1819 4.26526C27.1819 4.02256 26.9851 3.82581 26.7424 3.82581Z" fill="#FFBB01"/>
<path d="M25.803 8.52283H24.3939C24.1512 8.52283 23.9545 8.71958 23.9545 8.96228C23.9545 9.20498 24.1512 9.40173 24.3939 9.40173H25.803C26.0457 9.40173 26.2424 9.20498 26.2424 8.96228C26.2424 8.71958 26.0457 8.52283 25.803 8.52283Z" fill="#FFBB01"/>
<path d="M26.7424 6.17444H24.3939C24.1512 6.17444 23.9545 6.3712 23.9545 6.61389C23.9545 6.85659 24.1512 7.05334 24.3939 7.05334H26.7424C26.9851 7.05334 27.1819 6.85659 27.1819 6.61389C27.1819 6.3712 26.9851 6.17444 26.7424 6.17444Z" fill="#FFBB01"/>
<path d="M8.89403 10.8108C9.13673 10.8108 9.33349 10.614 9.33349 10.3713C9.33349 10.1286 9.13673 9.93188 8.89403 9.93188H7.95483C7.71214 9.93188 7.51538 10.1286 7.51538 10.3713C7.51538 10.614 7.71214 10.8108 7.95483 10.8108H8.89403Z" fill="#FFBB01"/>
<path d="M4.1969 10.8108H6.07577C6.31846 10.8108 6.51522 10.614 6.51522 10.3713C6.51522 10.1286 6.31846 9.93188 6.07577 9.93188H4.1969C3.9542 9.93188 3.75745 10.1286 3.75745 10.3713C3.75745 10.614 3.9542 10.8108 4.1969 10.8108Z" fill="#FFBB01"/>
<path d="M4.1969 13.1594H8.89389C9.13659 13.1594 9.33334 12.9627 9.33334 12.72C9.33334 12.4773 9.13659 12.2805 8.89389 12.2805H4.1969C3.9542 12.2805 3.75745 12.4773 3.75745 12.72C3.75745 12.9627 3.9542 13.1594 4.1969 13.1594Z" fill="#FFBB01"/>
<path d="M9.33334 15.0684C9.33334 14.8257 9.13659 14.6289 8.89389 14.6289H4.1969C3.9542 14.6289 3.75745 14.8257 3.75745 15.0684C3.75745 15.3111 3.9542 15.5078 4.1969 15.5078H8.89389C9.13659 15.5078 9.33334 15.3111 9.33334 15.0684Z" fill="#FFBB01"/>
<path d="M7.95471 17.8562H15.4698C15.7125 17.8562 15.9092 17.6594 15.9092 17.4167C15.9092 17.1741 15.7125 16.9773 15.4698 16.9773H7.95471C7.71202 16.9773 7.51526 17.1741 7.51526 17.4167C7.51526 17.6594 7.71202 17.8562 7.95471 17.8562Z" fill="#FFBB01"/>
<path d="M4.1969 16.9773C3.9542 16.9773 3.75745 17.1741 3.75745 17.4167C3.75745 17.6594 3.9542 17.8562 4.1969 17.8562H6.07577C6.31846 17.8562 6.51522 17.6594 6.51522 17.4167C6.51522 17.1741 6.31846 16.9773 6.07577 16.9773H4.1969Z" fill="#FFBB01"/>
<path d="M25.803 10.8715H24.3939C24.1512 10.8715 23.9545 11.0682 23.9545 11.3109C23.9545 11.5536 24.1512 11.7504 24.3939 11.7504H25.803C26.0457 11.7504 26.2424 11.5536 26.2424 11.3109C26.2424 11.0682 26.0457 10.8715 25.803 10.8715Z" fill="#FFBB01"/>
<path d="M28.1515 0.0683594H12.1818C11.1625 0.0683594 10.3333 0.897578 10.3333 1.91688V13.6592C10.3333 14.6785 11.1625 15.5078 12.1818 15.5078H22.3331L25.6298 18.8045C25.8042 18.9788 26.0356 19.0713 26.2718 19.0713C26.389 19.0713 26.5075 19.0485 26.6206 19.0016C26.9616 18.8604 27.1819 18.5307 27.1819 18.1616V15.5078H28.1515C29.1708 15.5078 30 14.6786 30 13.6593V1.91688C30 0.897578 29.1708 0.0683594 28.1515 0.0683594ZM29.1211 13.6593C29.1211 14.194 28.6862 14.6289 28.1515 14.6289H26.7424C26.4997 14.6289 26.303 14.8257 26.303 15.0684V18.1616C26.303 18.172 26.303 18.1819 26.2843 18.1896C26.2656 18.1972 26.2587 18.1904 26.2513 18.183L22.8259 14.7576C22.7435 14.6752 22.6317 14.6289 22.5152 14.6289H12.1818C11.6472 14.6289 11.2122 14.194 11.2122 13.6593V1.91688C11.2122 1.38221 11.6472 0.947266 12.1818 0.947266H28.1514C28.6861 0.947266 29.121 1.38221 29.121 1.91688V13.6593H29.1211Z" fill="#FFBB01"/>
<path d="M19.2272 16.5077C18.9846 16.5077 18.7878 16.7044 18.7878 16.9471V19.7653C18.7878 20.3 18.3529 20.7349 17.8182 20.7349H7.48488C7.36834 20.7349 7.25654 20.7812 7.17416 20.8637L3.74877 24.2891C3.74145 24.2964 3.73441 24.3034 3.71578 24.2957C3.69709 24.2879 3.69709 24.2781 3.69709 24.2677V21.1744C3.69709 20.9317 3.50033 20.735 3.25764 20.735H1.84852C1.31385 20.735 0.878906 20.3 0.878906 19.7654V8.02295C0.878906 7.48829 1.31385 7.05334 1.84852 7.05334H8.89406C9.13676 7.05334 9.33352 6.85659 9.33352 6.61389C9.33352 6.3712 9.13676 6.17444 8.89406 6.17444H1.84852C0.829219 6.17444 0 7.00366 0 8.02295V19.7653C0 20.7846 0.829219 21.6138 1.84852 21.6138H2.81813V24.2677C2.81813 24.6367 3.03844 24.9664 3.3794 25.1076C3.49254 25.1545 3.61096 25.1773 3.72826 25.1773C3.9644 25.1773 4.19584 25.0849 4.37022 24.9106L7.66693 21.6138H17.8182C18.8375 21.6138 19.6668 20.7846 19.6668 19.7653V16.9471C19.6667 16.7044 19.4699 16.5077 19.2272 16.5077Z" fill="#FFBB01"/>
</svg>
