<svg width="15" height="16" viewBox="0 0 15 16" fill="none" xmlns="http://www.w3.org/2000/svg">
<path d="M11.8438 9.36037C11.5367 9.04062 11.1663 8.86966 10.7738 8.86966C10.3844 8.86966 10.0108 9.03745 9.69104 9.3572L8.69063 10.3544C8.60832 10.3101 8.52601 10.269 8.44686 10.2278C8.33289 10.1708 8.22525 10.117 8.13344 10.06C7.19635 9.46484 6.34473 8.68921 5.52794 7.68563C5.13221 7.18543 4.86628 6.76437 4.67316 6.33698C4.93276 6.09954 5.17337 5.8526 5.40764 5.61516C5.49628 5.52652 5.58493 5.43471 5.67357 5.34607C6.3384 4.68124 6.3384 3.82013 5.67357 3.1553L4.80929 2.29102C4.71115 2.19288 4.60985 2.09157 4.51487 1.99026C4.32492 1.79398 4.12547 1.59137 3.91969 1.40142C3.6126 1.09749 3.24536 0.936035 2.85913 0.936035C2.47289 0.936035 2.09932 1.09749 1.78274 1.40142C1.77957 1.40458 1.77957 1.40458 1.77641 1.40775L0.700017 2.49363C0.294788 2.89886 0.0636807 3.39274 0.013027 3.96576C-0.0629535 4.89019 0.20931 5.7513 0.418256 6.31482C0.931124 7.6983 1.69726 8.98047 2.84013 10.3544C4.22678 12.0102 5.89518 13.3177 7.80103 14.2389C8.52917 14.584 9.50109 14.9924 10.587 15.0621C10.6535 15.0652 10.7231 15.0684 10.7864 15.0684C11.5177 15.0684 12.1319 14.8056 12.6131 14.2833C12.6163 14.2769 12.6226 14.2738 12.6258 14.2674C12.7904 14.068 12.9804 13.8875 13.1798 13.6944C13.3159 13.5646 13.4552 13.4285 13.5914 13.286C13.9048 12.9599 14.0694 12.58 14.0694 12.1906C14.0694 11.7981 13.9016 11.4213 13.5819 11.1048L11.8438 9.36037ZM12.9772 12.694C12.974 12.694 12.974 12.6972 12.9772 12.694C12.8537 12.827 12.7271 12.9473 12.591 13.0802C12.3852 13.2765 12.1762 13.4823 11.98 13.7134C11.6602 14.0553 11.2835 14.2168 10.7896 14.2168C10.7421 14.2168 10.6914 14.2168 10.644 14.2136C9.7037 14.1535 8.82993 13.7862 8.1746 13.4728C6.38272 12.6054 4.80929 11.3739 3.5018 9.81309C2.42224 8.51192 1.70043 7.3089 1.22238 6.01723C0.927959 5.22893 0.82032 4.61476 0.867807 4.0354C0.899466 3.665 1.04193 3.35791 1.3047 3.09515L2.38425 2.01559C2.53938 1.86996 2.704 1.79082 2.86546 1.79082C3.06491 1.79082 3.22637 1.91112 3.32768 2.01243C3.33084 2.01559 3.33401 2.01876 3.33717 2.02192C3.53029 2.20238 3.71391 2.38916 3.90703 2.58861C4.00517 2.68992 4.10647 2.79122 4.20778 2.8957L5.07206 3.75998C5.40764 4.09556 5.40764 4.40581 5.07206 4.74139C4.98025 4.8332 4.89161 4.92501 4.7998 5.01365C4.53386 5.28592 4.2806 5.53918 4.00517 5.78612C3.99884 5.79245 3.9925 5.79562 3.98934 5.80195C3.71708 6.07421 3.76773 6.34015 3.82471 6.5206C3.82788 6.5301 3.83105 6.53959 3.83421 6.54909C4.05899 7.09362 4.37557 7.60649 4.85678 8.2175L4.85995 8.22066C5.73372 9.29705 6.65499 10.136 7.67123 10.7787C7.80103 10.861 7.93399 10.9275 8.06063 10.9908C8.1746 11.0478 8.28224 11.1016 8.37404 11.1586C8.38671 11.1649 8.39937 11.1744 8.41203 11.1807C8.51967 11.2346 8.62098 11.2599 8.72545 11.2599C8.98822 11.2599 9.15285 11.0953 9.20666 11.0414L10.2894 9.95872C10.397 9.85108 10.568 9.72128 10.7674 9.72128C10.9637 9.72128 11.1252 9.84474 11.2233 9.95238C11.2265 9.95555 11.2265 9.95555 11.2296 9.95872L12.974 11.7031C13.3001 12.026 13.3001 12.3584 12.9772 12.694Z" fill="#949494"/>
<path d="M8.09545 3.63641C8.92491 3.77571 9.67838 4.16828 10.2799 4.76979C10.8814 5.3713 11.2708 6.12477 11.4133 6.95423C11.4481 7.16317 11.6286 7.3088 11.8343 7.3088C11.8597 7.3088 11.8818 7.30564 11.9071 7.30247C12.1414 7.26448 12.2966 7.04287 12.2586 6.8086C12.0876 5.80502 11.6127 4.89009 10.8877 4.16511C10.1628 3.44013 9.24782 2.96525 8.24425 2.7943C8.00997 2.75631 7.79153 2.91143 7.75037 3.14254C7.70922 3.37365 7.86118 3.59842 8.09545 3.63641Z" fill="#949494"/>
<path d="M14.9717 6.68517C14.6899 5.0326 13.9111 3.52882 12.7144 2.33213C11.5177 1.13544 10.014 0.356636 8.36139 0.0748752C8.13028 0.0337191 7.91183 0.192012 7.87068 0.423119C7.83269 0.657392 7.98782 0.875836 8.22209 0.916992C9.69738 1.16709 11.0429 1.86675 12.1129 2.93364C13.183 4.0037 13.8795 5.34919 14.1296 6.82447C14.1644 7.03342 14.3448 7.17905 14.5506 7.17905C14.576 7.17905 14.5981 7.17588 14.6234 7.17272C14.8545 7.13789 15.0128 6.91628 14.9717 6.68517Z" fill="#949494"/>
</svg>
