<svg width="30" height="32" viewBox="0 0 30 32" fill="none" xmlns="http://www.w3.org/2000/svg">
<path d="M15.8687 20.2699C16.4223 20.2268 16.9269 19.9444 17.2545 19.494L22.2335 12.6107C22.3861 12.3996 22.3632 12.1082 22.1782 11.9232C21.9931 11.7386 21.7017 11.7158 21.4906 11.8679L14.6062 16.8484C14.1574 17.175 13.8751 17.6796 13.832 18.2332C13.7889 18.7868 13.9894 19.3286 14.3813 19.7206C14.7381 20.0779 15.2194 20.2757 15.7198 20.2757C15.7692 20.2757 15.8187 20.2736 15.8687 20.2699ZM14.8923 18.3161C14.911 18.0731 15.0354 17.8514 15.2311 17.7089L19.4305 14.6708L16.3935 18.8692C16.25 19.0665 16.0282 19.1904 15.7852 19.2095C15.5432 19.2255 15.3055 19.1415 15.1327 18.9686C14.9615 18.7969 14.8732 18.5586 14.8923 18.3161Z" fill="#FFBB01"/>
<path d="M27.7804 10.472C27.7751 10.4608 27.7751 10.4491 27.7692 10.438C27.7629 10.4273 27.7528 10.4215 27.7458 10.4114C27.2082 9.48927 26.5722 8.63151 25.8501 7.85406L26.9923 6.71234L27.7442 7.46427L30 5.20795L27.7442 2.95217L25.4879 5.20795L26.2404 5.96041L25.0981 7.10213C24.3207 6.37998 23.4635 5.74345 22.5408 5.20583C22.5307 5.19891 22.5249 5.18881 22.5143 5.18243C22.5031 5.17605 22.4914 5.17658 22.4802 5.17073C20.8354 4.22311 18.9875 3.59189 17.0173 3.36057V2.72723H17.815C18.5483 2.72723 19.1444 2.13111 19.1444 1.39779C19.1444 0.664478 18.5477 0.0683594 17.8144 0.0683594H13.0285C12.2952 0.0683594 11.699 0.664478 11.699 1.39779C11.699 2.13111 12.2952 2.72723 13.0285 2.72723H13.8261V3.34196C13.2518 3.40311 12.6786 3.49671 12.1117 3.62646C11.8256 3.69187 11.6464 3.97743 11.7123 4.26352C11.7777 4.54962 12.0633 4.72936 12.3494 4.66289C12.8386 4.55068 13.3326 4.46613 13.8277 4.40923L14.3983 4.36509C14.5727 4.3518 14.7333 4.34223 14.8897 4.33478V5.3861C14.8897 5.68017 15.1274 5.91787 15.4215 5.91787C15.7155 5.91787 15.9532 5.68017 15.9532 5.3861V4.3385C17.9532 4.4305 19.8378 4.96759 21.5135 5.8514L20.9891 6.75914C20.8424 7.01386 20.9296 7.33877 21.1838 7.48554C21.2672 7.53393 21.3587 7.5568 21.4491 7.5568C21.6331 7.5568 21.8118 7.46161 21.9102 7.29091L22.4329 6.3853C24.0968 7.44087 25.5103 8.85433 26.5658 10.5182L25.6602 11.041C25.4066 11.1878 25.3194 11.5127 25.4667 11.7674C25.5656 11.9381 25.7437 12.0333 25.9277 12.0333C26.0181 12.0333 26.1096 12.0104 26.1931 11.962L27.1008 11.4377C27.9968 13.1372 28.5355 15.0527 28.6158 17.0846H27.5656C27.2715 17.0846 27.0338 17.3223 27.0338 17.6164C27.0338 17.9104 27.2715 18.1481 27.5656 18.1481H28.6158C28.5355 20.18 27.9968 22.0955 27.1008 23.795L26.1931 23.2707C25.9389 23.1239 25.6134 23.2101 25.4667 23.4653C25.3199 23.7201 25.4071 24.045 25.6613 24.1917L26.5669 24.7145C25.5113 26.3784 24.0979 27.7919 22.434 28.8474L21.9112 27.9418C21.7639 27.6866 21.4379 27.5999 21.1848 27.7472C20.9301 27.894 20.8429 28.2194 20.9902 28.4736L21.5145 29.3813C19.8389 30.2651 17.9543 30.8022 15.9543 30.8942V29.8477C15.9543 29.5536 15.7166 29.3159 15.4225 29.3159C15.1284 29.3159 14.8907 29.5536 14.8907 29.8477V30.8985C14.0415 30.8692 13.1896 30.7629 12.351 30.5704C12.0649 30.5018 11.7793 30.6836 11.7139 30.9697C11.648 31.2558 11.8272 31.5414 12.1133 31.6068C13.1747 31.8514 14.259 31.9748 15.3348 31.9748C15.3608 31.9748 15.3858 31.9732 15.4119 31.9727C15.4156 31.9727 15.4183 31.9748 15.4215 31.9748C15.4257 31.9748 15.4294 31.9721 15.4337 31.9721C17.9899 31.9546 20.3882 31.2643 22.4632 30.0721C22.4797 30.0647 22.4972 30.0609 22.5132 30.0514C22.5238 30.045 22.5297 30.0349 22.5398 30.028C24.6876 28.7762 26.4823 26.9836 27.7368 24.8373C27.7469 24.823 27.7597 24.8118 27.7687 24.7958C27.7751 24.7847 27.7746 24.773 27.7799 24.7618C28.9944 22.656 29.6927 20.2173 29.6927 17.6169C29.6927 15.0165 28.9944 12.5778 27.7804 10.472ZM27.7437 4.45603L28.4956 5.20795L27.7437 5.96041L26.9913 5.20795L27.7437 4.45603ZM14.8897 3.27017V1.66368H13.0285C12.8822 1.66368 12.7626 1.54403 12.7626 1.39779C12.7626 1.25156 12.8822 1.13191 13.0285 1.13191H17.8144C17.9607 1.13191 18.0803 1.25156 18.0803 1.39779C18.0803 1.54403 17.9607 1.66368 17.8144 1.66368H15.9532V3.27017C15.7682 3.26272 15.5916 3.259 15.4215 3.259C15.4066 3.259 15.3895 3.26007 15.3747 3.26007C15.3614 3.26007 15.3481 3.259 15.3348 3.259C15.2476 3.259 15.1604 3.26485 15.0731 3.26645C15.0115 3.26804 14.9535 3.26751 14.8897 3.27017Z" fill="#FFBB01"/>
<path d="M10.6356 7.51331H7.97672C7.68265 7.51331 7.44495 7.75101 7.44495 8.04508C7.44495 8.33915 7.68265 8.57685 7.97672 8.57685H10.6356C10.9297 8.57685 11.1674 8.33915 11.1674 8.04508C11.1674 7.75101 10.9297 7.51331 10.6356 7.51331Z" fill="#FFBB01"/>
<path d="M10.6355 11.2356H5.31772C5.02365 11.2356 4.78595 11.4733 4.78595 11.7674C4.78595 12.0614 5.02365 12.2991 5.31772 12.2991H10.6355C10.9295 12.2991 11.1672 12.0614 11.1672 11.7674C11.1672 11.4733 10.9295 11.2356 10.6355 11.2356Z" fill="#FFBB01"/>
<path d="M10.6355 14.9579H2.65885C2.36478 14.9579 2.12708 15.1956 2.12708 15.4897C2.12708 15.7837 2.36478 16.0214 2.65885 16.0214H10.6355C10.9295 16.0214 11.1672 15.7837 11.1672 15.4897C11.1672 15.1956 10.9295 14.9579 10.6355 14.9579Z" fill="#FFBB01"/>
<path d="M10.6355 18.6805H0.531774C0.237703 18.6805 0 18.9182 0 19.2123C0 19.5064 0.237703 19.7441 0.531774 19.7441H10.6355C10.9295 19.7441 11.1673 19.5064 11.1673 19.2123C11.1673 18.9182 10.9295 18.6805 10.6355 18.6805Z" fill="#FFBB01"/>
<path d="M10.6354 22.4028H3.72233C3.42825 22.4028 3.19055 22.6405 3.19055 22.9346C3.19055 23.2287 3.42825 23.4664 3.72233 23.4664H10.6354C10.9295 23.4664 11.1672 23.2287 11.1672 22.9346C11.1672 22.6405 10.9295 22.4028 10.6354 22.4028Z" fill="#FFBB01"/>
<path d="M10.6355 26.1252H6.91306C6.61899 26.1252 6.38129 26.3629 6.38129 26.657C6.38129 26.9511 6.61899 27.1888 6.91306 27.1888H10.6355C10.9295 27.1888 11.1673 26.9511 11.1673 26.657C11.1673 26.3629 10.9295 26.1252 10.6355 26.1252Z" fill="#FFBB01"/>
</svg>
