<svg width="15" height="18" viewBox="0 0 15 18" fill="none" xmlns="http://www.w3.org/2000/svg">
<path d="M7.43609 9.57037C7.45435 9.57037 7.47261 9.57037 7.49452 9.57037C7.50182 9.57037 7.50912 9.57037 7.51643 9.57037C7.52738 9.57037 7.54199 9.57037 7.55295 9.57037C8.62293 9.55211 9.48841 9.17597 10.1275 8.45657C11.5334 6.87168 11.2997 4.15474 11.2741 3.89546C11.1828 1.94904 10.2626 1.01783 9.50301 0.583265C8.93698 0.258254 8.276 0.0829666 7.53834 0.0683594H7.51278C7.50912 0.0683594 7.50182 0.0683594 7.49817 0.0683594H7.47626C7.07091 0.0683594 6.27481 0.134092 5.51158 0.568657C4.7447 1.00322 3.80984 1.93443 3.71854 3.89546C3.69298 4.15474 3.45927 6.87168 4.86521 8.45657C5.50063 9.17597 6.36611 9.55211 7.43609 9.57037ZM4.69358 3.98675C4.69358 3.9758 4.69723 3.96484 4.69723 3.95754C4.81774 1.33919 6.67651 1.058 7.47261 1.058H7.48721C7.49452 1.058 7.50547 1.058 7.51643 1.058C8.50242 1.07991 10.1786 1.48161 10.2918 3.95754C10.2918 3.96849 10.2918 3.97945 10.2955 3.98675C10.2991 4.01231 10.5547 6.49555 9.39346 7.80289C8.93333 8.32145 8.31983 8.57708 7.51278 8.58438C7.50547 8.58438 7.50182 8.58438 7.49452 8.58438C7.48721 8.58438 7.48356 8.58438 7.47626 8.58438C6.67286 8.57708 6.0557 8.32145 5.59923 7.80289C4.4416 6.50285 4.68993 4.00866 4.69358 3.98675Z" fill="#949494"/>
<path d="M14.999 14.0766C14.999 14.073 14.999 14.0693 14.999 14.0657C14.999 14.0365 14.9953 14.0073 14.9953 13.9744C14.9734 13.2513 14.9259 11.5605 13.3411 11.0201C13.3301 11.0164 13.3155 11.0128 13.3045 11.0091C11.6576 10.5892 10.2881 9.63969 10.2735 9.62874C10.0508 9.47171 9.74402 9.52649 9.587 9.74925C9.42997 9.97201 9.48474 10.2788 9.70751 10.4358C9.76959 10.4796 11.223 11.4912 13.0416 11.9586C13.8925 12.2617 13.9874 13.171 14.013 14.0036C14.013 14.0365 14.013 14.0657 14.0166 14.0949C14.0203 14.4236 13.9984 14.9312 13.94 15.2233C13.3484 15.5593 11.0295 16.7206 7.50181 16.7206C3.98877 16.7206 1.65526 15.5556 1.06002 15.2197C1.00159 14.9275 0.976027 14.4199 0.983331 14.0912C0.983331 14.062 0.986983 14.0328 0.986983 14C1.01255 13.1673 1.10749 12.258 1.95836 11.9549C3.77697 11.4875 5.23039 10.4723 5.29247 10.4321C5.51523 10.2751 5.57 9.96835 5.41298 9.74559C5.25595 9.52283 4.9492 9.46806 4.72644 9.62508C4.71183 9.63604 3.3497 10.5855 1.69543 11.0055C1.68083 11.0091 1.66987 11.0128 1.65892 11.0164C0.0740301 11.5605 0.0265566 13.2513 0.00464579 13.9707C0.00464579 14.0036 0.0046457 14.0328 0.000993893 14.062C0.000993893 14.0657 0.000993893 14.0693 0.000993893 14.073C-0.00265792 14.2629 -0.00630965 15.2379 0.187236 15.7273C0.223754 15.8222 0.289487 15.9025 0.37713 15.9573C0.486685 16.0304 3.11234 17.7029 7.50546 17.7029C11.8986 17.7029 14.5242 16.0267 14.6338 15.9573C14.7178 15.9025 14.7872 15.8222 14.8237 15.7273C15.0063 15.2416 15.0026 14.2665 14.999 14.0766Z" fill="#949494"/>
</svg>
