<svg width="50" height="51" viewBox="0 0 50 51" fill="none" xmlns="http://www.w3.org/2000/svg">
<path d="M48.5144 21.031L40.2727 29.2727L35.5691 24.5606L39.124 21.031C39.4069 20.7005 39.3878 20.2083 39.0801 19.9005C38.7727 19.5932 38.2805 19.5741 37.95 19.857L34.3871 23.3785L32.0391 21.0225L40.2727 12.7808C40.5955 12.456 40.5955 11.9316 40.2727 11.6068C39.9479 11.284 39.4235 11.284 39.0988 11.6068L30.266 20.44C30.1083 20.5961 30.0197 20.8091 30.0197 21.031C30.0197 21.253 30.1083 21.4656 30.266 21.6221L31.4481 22.7956L30.266 23.9781C28.8685 22.5794 26.6799 22.3566 25.0295 23.4452L24.3803 22.7956C23.6003 22.0176 22.5434 21.5806 21.4414 21.5802C20.9207 21.5802 20.404 21.6761 19.9178 21.8635L18.4943 20.44L19.0853 19.857C19.243 19.7005 19.3317 19.4879 19.3317 19.266C19.3317 19.0441 19.243 18.831 19.0853 18.675L10.8188 10.4332C10.4924 10.1089 9.96477 10.1109 9.64079 10.4373C9.31641 10.7637 9.31844 11.291 9.64486 11.6153L17.2955 19.266L16.7045 19.8485L12.542 23.9696L9.60339 21.0225C9.44689 20.8647 9.23429 20.7761 9.01235 20.7761C8.7904 20.7761 8.5774 20.8647 8.4213 21.0225C8.09814 21.3473 8.09814 21.8716 8.4213 22.1964L11.368 25.1435L10.1859 26.3171L9.07861 27.541L1.42794 19.857C1.27185 19.6993 1.05884 19.6107 0.836898 19.6107C0.614951 19.6107 0.402354 19.6993 0.245853 19.857C-0.0769053 20.1818 -0.0769053 20.7062 0.245853 21.031L8.48756 29.2727C8.64488 29.4284 8.85747 29.5154 9.07861 29.5142C9.30015 29.5154 9.51274 29.4284 9.67006 29.2727L10.8188 28.0988L11.9924 29.2727C10.3676 30.8983 10.3676 33.5328 11.9924 35.1584L13.5578 36.6986C13.7139 36.8563 13.9269 36.9449 14.1488 36.9449C14.3708 36.9449 14.5834 36.8563 14.7399 36.6986C15.0626 36.3738 15.0626 35.8494 14.7399 35.5246L13.1997 33.9848C12.7293 33.5161 12.4651 32.8796 12.4651 32.2157C12.4651 31.5515 12.7293 30.915 13.1997 30.4467L13.7826 29.8638L19.6764 23.9696C20.6658 23.031 22.217 23.031 23.2064 23.9696L28.501 29.2642C28.7839 29.5947 28.7648 30.0869 28.4575 30.3946C28.1498 30.702 27.6575 30.7211 27.3274 30.4381L23.4893 26.6004C23.1609 26.274 22.6296 26.2756 22.3031 26.6045C21.9767 26.9333 21.9784 27.4642 22.3072 27.7906L26.1449 31.6288C26.8587 32.3479 27.936 32.5649 28.8721 32.1779C29.8087 31.791 30.4184 30.8767 30.416 29.8638C30.4152 29.2016 30.1518 28.5666 29.6831 28.0988L26.2535 24.6687C27.2096 24.2354 28.3331 24.4265 29.092 25.1517L36.1602 32.2198C36.6256 32.6889 36.8862 33.3239 36.8846 33.9848C36.8862 34.6458 36.6256 35.2803 36.1602 35.7494L33.8041 38.1055L31.39 40.5115L29.6831 42.2265L24.9714 46.9382C24.6466 47.261 24.1222 47.261 23.7974 46.9382C23.4747 46.6138 23.4747 46.0895 23.7974 45.7647L29.1339 40.453C29.3713 40.2497 29.475 39.9302 29.4018 39.6262C29.3286 39.3221 29.0912 39.0847 28.7872 39.0116C28.4827 38.9384 28.1636 39.0416 27.9599 39.2794L22.6568 44.574C22.3267 44.857 21.8345 44.8379 21.5267 44.5305C21.2194 44.2228 21.2003 43.7306 21.4832 43.4001L26.7779 38.1055C26.9356 37.9494 27.0242 37.7364 27.0242 37.5144C27.0242 37.2925 26.9356 37.0799 26.7779 36.9234C26.4531 36.6006 25.9287 36.6006 25.6039 36.9234L20.3007 42.2265C19.9764 42.5493 19.452 42.5493 19.1272 42.2265C18.9695 42.07 18.8809 41.8574 18.8809 41.6355C18.8809 41.4135 18.9695 41.2005 19.1272 41.0444L24.4218 35.7494C24.5795 35.5933 24.6681 35.3803 24.6681 35.1584C24.6681 34.9364 24.5795 34.7238 24.4218 34.5673C24.097 34.2446 23.5726 34.2446 23.2478 34.5673L17.9451 39.8705C17.6187 40.1945 17.0911 40.1928 16.7671 39.8664C16.4427 39.54 16.4447 39.0124 16.7711 38.6884L23.173 32.2946C23.4995 31.9682 23.4995 31.4389 23.173 31.1125C22.8466 30.7861 22.3174 30.7861 21.991 31.1125L15.5557 37.5311C14.5818 38.5063 14.5818 40.0859 15.5557 41.0611C15.9858 41.5001 16.565 41.7619 17.1789 41.7936C17.2532 43.0611 18.267 44.0712 19.5349 44.1411C19.6052 45.4122 20.6203 46.4269 21.891 46.4972C21.9149 47.1232 22.1735 47.7179 22.6153 48.1622C23.3657 48.911 24.5072 49.1049 25.4624 48.6451L26.1449 49.3361C26.8461 50.0378 27.8965 50.2581 28.8209 49.8971C29.7449 49.5361 30.3676 48.6626 30.4075 47.6711C31.0347 47.652 31.631 47.3927 32.0725 46.9468C32.505 46.5126 32.7627 45.935 32.7968 45.3232C34.068 45.2533 35.0826 44.2383 35.1529 42.9672C36.1443 42.9277 37.0179 42.3046 37.3789 41.3806C37.7402 40.4562 37.5199 39.4063 36.8179 38.7051L36.2269 38.1221L37.4089 36.94C38.187 36.16 38.624 35.1031 38.6244 34.0011C38.6049 33.1771 38.341 32.3775 37.8667 31.7036L39.124 30.4467L39.715 31.0377C40.0398 31.3605 40.5642 31.3605 40.889 31.0377L49.6965 22.2046C50.0193 21.8802 50.0193 21.3554 49.6965 21.031C49.5404 20.8733 49.3274 20.7847 49.1055 20.7847C48.8835 20.7847 48.6709 20.8733 48.5144 21.031ZM12.0176 26.9167L17.3207 21.6221L18.4943 22.7956L13.1997 28.0988L12.0176 26.9167ZM28.501 48.1122C28.1762 48.4349 27.6518 48.4349 27.3274 48.1122L26.7364 47.5211L27.9185 46.3472L28.501 46.9301C28.6587 47.0862 28.7473 47.2992 28.7473 47.5211C28.7473 47.7431 28.6587 47.9561 28.501 48.1122ZM30.857 45.7561C30.5323 46.0789 30.0079 46.0789 29.6831 45.7561L29.1339 45.1651L29.725 44.574L30.3075 43.9911L30.8989 44.574C31.0562 44.7305 31.1448 44.9431 31.1448 45.1651C31.1448 45.387 31.0562 45.6 30.8989 45.7561H30.857ZM33.2131 43.4001C32.8883 43.7228 32.3639 43.7228 32.0391 43.4001L31.4481 42.809L32.622 41.6355L33.2131 42.2265C33.5359 42.5513 33.5359 43.0757 33.2131 43.4001ZM35.5691 41.0444C35.4126 41.2018 35.2 41.2904 34.9781 41.2904C34.7562 41.2904 34.5431 41.2018 34.3871 41.0444L33.8041 40.453L34.9614 39.2794L35.5525 39.8705C35.8797 40.1904 35.8874 40.7152 35.5691 41.0444ZM36.7427 30.4467L31.4481 25.1517L32.622 23.9781L37.9252 29.2727L36.7427 30.4467Z" fill="#FFBB01"/>
<path d="M15.8139 13.3885H34.129C34.5888 13.3885 34.9615 13.0157 34.9615 12.556V0.900924C34.9615 0.441177 34.5888 0.0684204 34.129 0.0684204H15.8139C15.3542 0.0684204 14.9814 0.441177 14.9814 0.900924V12.556C14.9814 13.0157 15.3542 13.3885 15.8139 13.3885ZM16.6465 10.0585C17.5659 10.0585 18.3115 10.804 18.3115 11.7235H16.6465V10.0585ZM33.2965 11.7235H31.6315C31.6315 10.804 32.377 10.0585 33.2965 10.0585V11.7235ZM33.2965 3.39844C32.377 3.39844 31.6315 2.65292 31.6315 1.73343H33.2965V3.39844ZM33.2965 5.06344V8.39346C31.4571 8.39346 29.9665 9.88449 29.9665 11.7235H19.9765C19.9765 9.88449 18.4854 8.39346 16.6465 8.39346V5.06344C18.4854 5.06344 19.9765 3.57242 19.9765 1.73343H29.9665C29.9665 3.57242 31.4571 5.06344 33.2965 5.06344ZM16.6465 1.73343H18.3115C18.3115 2.65292 17.5659 3.39844 16.6465 3.39844V1.73343Z" fill="#FFBB01"/>
<path d="M24.9713 10.0585C26.8102 10.0585 28.3013 8.56744 28.3013 6.72845C28.3013 4.88947 26.8102 3.39844 24.9713 3.39844C23.1319 3.39844 21.6412 4.88947 21.6412 6.72845C21.6412 8.56744 23.1319 10.0585 24.9713 10.0585ZM24.9713 5.06345C25.8907 5.06345 26.6363 5.80896 26.6363 6.72845C26.6363 7.64795 25.8907 8.39346 24.9713 8.39346C24.0518 8.39346 23.3062 7.64795 23.3062 6.72845C23.3062 5.80896 24.0518 5.06345 24.9713 5.06345Z" fill="#FFBB01"/>
<path d="M31.6313 6.72844C31.6313 7.18819 31.2586 7.56094 30.7988 7.56094C30.3391 7.56094 29.9663 7.18819 29.9663 6.72844C29.9663 6.26869 30.3391 5.89594 30.7988 5.89594C31.2586 5.89594 31.6313 6.26869 31.6313 6.72844Z" fill="#FFBB01"/>
<path d="M19.9763 6.72844C19.9763 7.18819 19.6035 7.56094 19.1438 7.56094C18.684 7.56094 18.3113 7.18819 18.3113 6.72844C18.3113 6.26869 18.684 5.89594 19.1438 5.89594C19.6035 5.89594 19.9763 6.26869 19.9763 6.72844Z" fill="#FFBB01"/>
<path d="M49.805 5.4382L46.475 0.443176C46.3202 0.212692 46.0612 0.0748901 45.784 0.0748901C45.5068 0.0748901 45.2474 0.212692 45.0929 0.443176L41.7629 5.4382C41.6719 5.57356 41.6227 5.73291 41.6215 5.89591V9.22593C41.6215 9.68568 41.9942 10.0584 42.454 10.0584C42.9137 10.0584 43.2865 9.68568 43.2865 9.22593V6.1455L45.784 2.39924L48.2815 6.1455V15.0535C48.2815 15.5132 48.6543 15.886 49.114 15.886C49.5738 15.886 49.9465 15.5132 49.9465 15.0535V5.89591C49.9453 5.73291 49.8961 5.57356 49.805 5.4382Z" fill="#FFBB01"/>
<path d="M46.6166 11.7235V6.72844C46.6166 6.26869 46.2438 5.89594 45.784 5.89594C45.3243 5.89594 44.9515 6.26869 44.9515 6.72844V11.7235C44.9515 12.1832 45.3243 12.556 45.784 12.556C46.2438 12.556 46.6166 12.1832 46.6166 11.7235Z" fill="#FFBB01"/>
<path d="M0.828736 7.56098H1.66124V17.551C1.66124 18.0108 2.034 18.3835 2.49374 18.3835C2.95349 18.3835 3.32625 18.0108 3.32625 17.551V6.72848C3.32625 6.26873 2.95349 5.89597 2.49374 5.89597H2.44375L4.99126 2.33304L7.53877 5.89597H7.48877C7.02902 5.89597 6.65626 6.26873 6.65626 6.72848V8.39349C6.65626 8.85323 7.02902 9.22599 7.48877 9.22599C7.94852 9.22599 8.32127 8.85323 8.32127 8.39349V7.56098H9.15378C9.46475 7.55936 9.74889 7.38497 9.89075 7.10815C10.0326 6.83173 10.0082 6.49881 9.82815 6.24556L5.66563 0.418033C5.50873 0.201777 5.25832 0.0737305 4.99126 0.0737305C4.72419 0.0737305 4.47338 0.201777 4.31688 0.418033L0.154359 6.24556C-0.0261248 6.49881 -0.0501081 6.83173 0.0917591 7.10815C0.233626 7.38497 0.517767 7.55936 0.828736 7.56098Z" fill="#FFBB01"/>
<path d="M4.99121 11.7235V14.221C4.99121 14.6807 5.36397 15.0535 5.82372 15.0535C6.28346 15.0535 6.65622 14.6807 6.65622 14.221V11.7235C6.65622 11.2637 6.28346 10.891 5.82372 10.891C5.36397 10.891 4.99121 11.2637 4.99121 11.7235Z" fill="#FFBB01"/>
</svg>
