<svg width="50" height="51" viewBox="0 0 50 51" fill="none" xmlns="http://www.w3.org/2000/svg">
<path d="M42.1107 36.7713L39.1611 39.7209L37.3945 37.9462C37.0679 37.6195 36.5381 37.6195 36.2115 37.9462C35.8848 38.2729 35.8848 38.8026 36.2115 39.1293L38.5695 41.4874C38.7257 41.6452 38.9389 41.7339 39.1611 41.7339C39.3832 41.7339 39.596 41.6452 39.7526 41.4874L43.3271 37.9462C43.5647 37.7428 43.6684 37.423 43.5952 37.1187C43.522 36.814 43.2844 36.5764 42.9801 36.5032C42.6758 36.4299 42.356 36.5337 42.1521 36.7713H42.1107Z" fill="#FFBB01"/>
<path d="M43.3271 30.9807V28.3977C43.3271 27.9375 42.954 27.5645 42.4939 27.5645H39.9943V26.7312C39.9943 25.3508 41.1135 24.2316 42.4939 24.2316C42.954 24.2316 43.3271 23.8585 43.3271 23.3984C43.3271 22.9383 42.954 22.5652 42.4939 22.5652C40.1932 22.5652 38.3278 24.4306 38.3278 26.7312V27.5645H35.8282C35.3681 27.5645 34.995 27.9375 34.995 28.3977V30.9807C30.7219 32.9392 28.3903 37.6098 29.3924 42.2018C30.3948 46.7942 34.4604 50.0685 39.161 50.0685C43.8613 50.0685 47.9273 46.7942 48.9297 42.2018C49.9318 37.6098 47.6002 32.9392 43.3271 30.9807ZM39.9943 48.3947V47.5615C39.9943 47.1014 39.6212 46.7283 39.161 46.7283C38.7009 46.7283 38.3278 47.1014 38.3278 47.5615V48.3947C34.3546 48.0139 31.2097 44.8691 30.8289 40.8958H31.6621C32.1223 40.8958 32.4953 40.5228 32.4953 40.0626C32.4953 39.6025 32.1223 39.2294 31.6621 39.2294H30.8289C31.143 36.1175 33.1731 33.4437 36.0865 32.3054C36.4071 32.1817 36.6187 31.8741 36.6199 31.5303V29.2309H41.6192V31.5303C41.62 31.8741 41.8316 32.1817 42.1522 32.3054C45.0981 33.4189 47.1644 36.0976 47.4932 39.2294H46.66C46.1998 39.2294 45.8267 39.6025 45.8267 40.0626C45.8267 40.5228 46.1998 40.8958 46.66 40.8958H47.4932C47.1124 44.8691 43.9675 48.0139 39.9943 48.3947Z" fill="#FFBB01"/>
<path d="M26.8377 43.3955C26.6628 43.3955 4.16606 43.3955 4.16606 43.3955C2.78565 43.3955 1.66642 42.2762 1.66642 40.8958V14.233H44.9935V29.6141C44.9935 30.0742 45.3665 30.4473 45.8267 30.4473C46.2868 30.4473 46.6599 30.0742 46.6599 29.6141V8.40054C46.6599 6.09985 44.7945 4.23448 42.4938 4.23448H40.8274V3.40127C40.8274 2.94113 40.4543 2.56806 39.9942 2.56806C39.5341 2.56806 39.161 2.94113 39.161 3.40127V6.73412C39.161 7.6544 38.4148 8.40054 37.4946 8.40054C36.5743 8.40054 35.8281 7.6544 35.8281 6.73412V3.40127C35.8281 2.48099 36.5743 1.73485 37.4946 1.73485C37.9547 1.73485 38.3278 1.36177 38.3278 0.901633C38.3278 0.441494 37.9547 0.0684204 37.4946 0.0684204C35.654 0.0684204 34.1617 1.56072 34.1617 3.40127V4.23448H26.6628V3.40127C26.6628 2.94113 26.2897 2.56806 25.8296 2.56806C25.3694 2.56806 24.9964 2.94113 24.9964 3.40127V6.73412C24.9964 7.6544 24.2502 8.40054 23.3299 8.40054C22.4097 8.40054 21.6635 7.6544 21.6635 6.73412V3.40127C21.6635 2.48099 22.4097 1.73485 23.3299 1.73485C23.7901 1.73485 24.1632 1.36177 24.1632 0.901633C24.1632 0.441494 23.7901 0.0684204 23.3299 0.0684204C21.4894 0.0684204 19.9971 1.56072 19.9971 3.40127V4.23448H12.4982V3.40127C12.4982 2.94113 12.1251 2.56806 11.665 2.56806C11.2048 2.56806 10.8318 2.94113 10.8318 3.40127V6.73412C10.8318 7.6544 10.0856 8.40054 9.16534 8.40054C8.24506 8.40054 7.49891 7.6544 7.49891 6.73412V3.40127C7.49891 2.48099 8.24506 1.73485 9.16534 1.73485C9.62547 1.73485 9.99855 1.36177 9.99855 0.901633C9.99855 0.441494 9.62547 0.0684204 9.16534 0.0684204C7.32478 0.0684204 5.83249 1.56072 5.83249 3.40127V4.23448H4.16606C1.86537 4.23448 0 6.09985 0 8.40054V40.8958C0 43.1965 1.86537 45.0619 4.16606 45.0619H23.3299C27.7043 45.0619 27.7043 45.0619 27.7043 44.2287C27.7055 44.0074 27.6185 43.7942 27.4626 43.6371C27.2975 43.4728 27.0709 43.3849 26.8377 43.3955ZM4.16606 5.90091H5.83249V6.73412C5.83249 8.57467 7.32478 10.067 9.16534 10.067C11.0059 10.067 12.4982 8.57467 12.4982 6.73412V5.90091H19.9971V6.73412C19.9971 8.57467 21.4894 10.067 23.3299 10.067C25.1705 10.067 26.6628 8.57467 26.6628 6.73412V5.90091H34.1617V6.73412C34.1617 8.57467 35.654 10.067 37.4946 10.067C39.3351 10.067 40.8274 8.57467 40.8274 6.73412V5.90091H42.4938C43.8742 5.90091 44.9935 7.02013 44.9935 8.40054V12.5666H1.66642V8.40054C1.66642 7.02013 2.78565 5.90091 4.16606 5.90091Z" fill="#FFBB01"/>
<path d="M14.9979 17.5659C14.9979 17.1057 14.6248 16.7327 14.1647 16.7327H7.49898C7.03885 16.7327 6.66577 17.1057 6.66577 17.5659V24.2316C6.66577 24.6917 7.03885 25.0648 7.49898 25.0648H14.1647C14.6248 25.0648 14.9979 24.6917 14.9979 24.2316V17.5659ZM13.3315 23.3984H8.3322V18.3991H13.3315V23.3984Z" fill="#FFBB01"/>
<path d="M14.1647 30.0641C14.6248 30.0641 14.9979 29.691 14.9979 29.2309C14.9979 28.7707 14.6248 28.3976 14.1647 28.3976H7.49898C7.03885 28.3976 6.66577 28.7707 6.66577 29.2309V35.8965C6.66577 36.3567 7.03885 36.7298 7.49898 36.7298H14.1647C14.6248 36.7298 14.9979 36.3567 14.9979 35.8965V32.5637C14.9979 32.1036 14.6248 31.7305 14.1647 31.7305C13.7045 31.7305 13.3315 32.1036 13.3315 32.5637V35.0633H8.3322V30.0641H14.1647Z" fill="#FFBB01"/>
<path d="M19.164 28.3976C18.7039 28.3976 18.3308 28.7707 18.3308 29.2309V35.8965C18.3308 36.3567 18.7039 36.7298 19.164 36.7298H25.8297C26.2898 36.7298 26.6629 36.3567 26.6629 35.8965V29.2309C26.6629 28.7707 26.2898 28.3976 25.8297 28.3976H19.164ZM24.9965 35.0633H19.9972V30.0641H24.9965V35.0633Z" fill="#FFBB01"/>
<path d="M37.4946 23.3984C37.9548 23.3984 38.3278 23.0253 38.3278 22.5652V17.5659C38.3278 17.1057 37.9548 16.7327 37.4946 16.7327H30.8289C30.3688 16.7327 29.9957 17.1057 29.9957 17.5659V24.2316C29.9957 24.6917 30.3688 25.0648 30.8289 25.0648C31.2891 25.0648 31.6621 24.6917 31.6621 24.2316V18.3991H36.6614V22.5652C36.6614 23.0253 37.0345 23.3984 37.4946 23.3984Z" fill="#FFBB01"/>
<path d="M26.4213 16.9743C26.2646 16.8165 26.0519 16.7278 25.8297 16.7278C25.6076 16.7278 25.3944 16.8165 25.2382 16.9743L22.4969 19.7238L19.7556 16.9743C19.4289 16.6476 18.8992 16.6476 18.5725 16.9743C18.2458 17.301 18.2458 17.8307 18.5725 18.1574L21.3219 20.8987L18.5725 23.64C18.4146 23.7963 18.3259 24.0094 18.3259 24.2316C18.3259 24.4537 18.4146 24.6669 18.5725 24.8231C18.7287 24.981 18.9419 25.0697 19.164 25.0697C19.3862 25.0697 19.5989 24.981 19.7556 24.8231L22.4969 22.0737L25.2382 24.8231C25.3944 24.981 25.6076 25.0697 25.8297 25.0697C26.0519 25.0697 26.2646 24.981 26.4213 24.8231C26.5791 24.6669 26.6678 24.4537 26.6678 24.2316C26.6678 24.0094 26.5791 23.7963 26.4213 23.64L23.6718 20.8987L26.4213 18.1574C26.5791 18.0012 26.6678 17.788 26.6678 17.5659C26.6678 17.3437 26.5791 17.1306 26.4213 16.9743Z" fill="#FFBB01"/>
</svg>
