<svg width="50" height="51" viewBox="0 0 50 51" fill="none" xmlns="http://www.w3.org/2000/svg">
<path d="M49.9035 11.9204C49.7314 11.2804 49.3116 10.7349 48.7371 10.4041C48.1623 10.0717 47.4788 9.98181 46.8376 10.1539C46.1973 10.3264 45.6517 10.7458 45.3209 11.3203L44.9043 12.0453C44.5085 11.8178 44.0028 11.9517 43.7713 12.3455L41.655 15.9529L40.93 15.5363C40.738 15.4252 40.5093 15.3951 40.2953 15.4529C40.0809 15.5111 39.8987 15.6518 39.7884 15.8447C39.5626 16.243 39.7002 16.7491 40.0968 16.9777L40.8218 17.3943L33.7397 29.6672L31.9899 34.3417L31.1567 35.8994C30.6689 36.7481 30.721 37.803 31.2901 38.5992L29.4154 40.8986L28.8906 39.5825C28.6539 38.9958 28.1059 38.5939 27.4757 38.5447C26.8451 38.495 26.2409 38.8067 25.9159 39.349L25.616 39.8571L25.3329 36.5243C25.2678 35.7359 24.6571 35.102 23.872 35.0068C23.0864 34.9121 22.3427 35.3828 22.0917 36.133L20.042 42.2818C19.8988 42.7167 20.1332 43.1854 20.5669 43.3318C20.6482 43.3697 20.7357 43.3925 20.8252 43.3982C21.1832 43.3994 21.5022 43.1711 21.6169 42.8318L23.658 36.683L23.9497 40.0654C24.0099 40.7871 24.5286 41.3872 25.234 41.5507C25.9395 41.7143 26.6693 41.4035 27.0408 40.7822L27.3491 40.2737L27.8658 41.5821C28.0851 42.1333 28.581 42.5267 29.1681 42.6142C29.7552 42.7017 30.3442 42.4702 30.7153 42.0068L32.6567 39.5491C32.8715 39.6053 33.0928 39.6333 33.3149 39.6325C34.2079 39.6394 35.037 39.1691 35.4894 38.399L36.3226 37.0076L39.4971 33.1501L46.6541 20.7271L47.3791 21.1436C47.5723 21.2543 47.7131 21.437 47.7705 21.6522C47.8282 21.8658 47.7981 22.0936 47.6875 22.2852L44.3547 28.0594C44.229 28.249 44.1863 28.4817 44.2367 28.7038C44.2872 28.9255 44.4259 29.1171 44.6212 29.2339C44.8132 29.3454 45.0419 29.3755 45.2558 29.3177C45.4702 29.2595 45.6525 29.1188 45.7628 28.9259L49.0955 23.1518C49.4279 22.5769 49.5178 21.8934 49.3453 21.2523C49.1728 20.6119 48.7534 20.0664 48.1789 19.7356L47.454 19.319L49.5369 15.7112C49.7644 15.3154 49.6305 14.8101 49.2371 14.5782L49.6537 13.8532C49.995 13.2694 50.0853 12.5721 49.9035 11.9204ZM46.7623 12.1535C46.8726 11.9606 47.0557 11.8195 47.2709 11.7621C47.4849 11.7092 47.7111 11.7389 47.9039 11.8455C48.0972 11.9558 48.2379 12.1388 48.2957 12.3536C48.3486 12.5676 48.3189 12.7938 48.2123 12.9867L47.7957 13.7116L46.3458 12.8785L46.7623 12.1535ZM35.406 35.4165L34.9894 35.1749L33.7563 34.458L34.9394 31.2921L37.5639 32.8083L35.406 35.4165ZM32.9065 37.8242C32.5546 37.5788 32.4463 37.1069 32.6567 36.7326L33.0733 36.0081L34.5228 36.8412L34.1062 37.5577C33.9895 37.7603 33.7934 37.9043 33.5651 37.9552C33.3369 38.0056 33.0981 37.9584 32.9065 37.8242ZM38.5138 31.4422L35.631 29.7758L42.2966 18.2275L45.1794 19.8939L38.5138 31.4422ZM46.0126 18.4525L43.1297 16.7861L44.7961 13.9033L47.6789 15.5696L46.0126 18.4525Z" fill="#FFBB01"/>
<path d="M13.1476 37.4121L10.1985 40.3534L8.43203 38.587C8.10697 38.264 7.58216 38.264 7.2571 38.587C7.09925 38.7436 7.01056 38.9564 7.01056 39.1785C7.01056 39.4007 7.09925 39.6138 7.2571 39.7701L9.02356 41.5365C9.33601 41.8465 9.7583 42.0202 10.1985 42.0198C10.6411 42.0223 11.0671 41.8486 11.3816 41.5365L14.3225 38.587C14.6057 38.2562 14.5866 37.7636 14.279 37.456C13.971 37.148 13.4784 37.1289 13.1476 37.4121Z" fill="#FFBB01"/>
<path d="M3.33282 39.6534C3.33282 43.5651 6.50367 46.7355 10.415 46.7355C14.3262 46.7355 17.4971 43.5651 17.4971 39.6534C17.4971 39.1933 17.124 38.8202 16.6639 38.8202C16.2038 38.8202 15.8307 39.1933 15.8307 39.6534C15.8307 42.6444 13.406 45.0691 10.415 45.0691C7.42392 45.0691 4.99921 42.6444 4.99921 39.6534C4.99921 36.6623 7.42392 34.2376 10.415 34.2376C11.5874 34.2344 12.7286 34.6148 13.6643 35.321C14.0325 35.5973 14.5549 35.5224 14.8307 35.1542C15.1069 34.786 15.0325 34.2641 14.6643 33.9878C12.5183 32.3784 9.64685 32.1197 7.24777 33.319C4.84827 34.5188 3.33282 36.9711 3.33282 39.6534Z" fill="#FFBB01"/>
<path d="M29.9948 6.74225C30.455 6.74225 30.828 6.36959 30.828 5.90906C30.828 5.44893 30.455 5.07587 29.9948 5.07587H8.33185C7.87172 5.07587 7.49866 5.44893 7.49866 5.90906V9.24182C7.49866 9.70236 7.87172 10.075 8.33185 10.075H29.9948C30.455 10.075 30.828 9.70236 30.828 9.24182C30.828 8.7817 30.455 8.40863 29.9948 8.40863H9.16504V6.74225H29.9948Z" fill="#FFBB01"/>
<path d="M10.8315 11.7415C10.3714 11.7415 9.99829 12.1145 9.99829 12.5746C9.99829 13.0352 10.3714 13.4078 10.8315 13.4078H27.4953C27.9554 13.4078 28.3285 13.0352 28.3285 12.5746C28.3285 12.1145 27.9554 11.7415 27.4953 11.7415H10.8315Z" fill="#FFBB01"/>
<path d="M32.4945 17.5737H14.1643C13.7042 17.5737 13.3311 17.9468 13.3311 18.4069C13.3311 18.8675 13.7042 19.2401 14.1643 19.2401H32.4945C32.9546 19.2401 33.3277 18.8675 33.3277 18.4069C33.3277 17.9468 32.9546 17.5737 32.4945 17.5737Z" fill="#FFBB01"/>
<path d="M24.1625 23.4061C24.1625 22.946 23.7895 22.5729 23.3294 22.5729H6.66553C6.2054 22.5729 5.83234 22.946 5.83234 23.4061C5.83234 23.8667 6.2054 24.2393 6.66553 24.2393H23.3294C23.7895 24.2393 24.1625 23.8667 24.1625 23.4061Z" fill="#FFBB01"/>
<path d="M32.4944 22.5729H26.6621C26.202 22.5729 25.8289 22.946 25.8289 23.4061C25.8289 23.8667 26.202 24.2393 26.6621 24.2393H32.4944C32.9546 24.2393 33.3276 23.8667 33.3276 23.4061C33.3276 22.946 32.9546 22.5729 32.4944 22.5729Z" fill="#FFBB01"/>
<path d="M14.9974 28.4053C15.4576 28.4053 15.8306 28.0326 15.8306 27.5721C15.8306 27.112 15.4576 26.7389 14.9974 26.7389H6.66553C6.2054 26.7389 5.83234 27.112 5.83234 27.5721C5.83234 28.0326 6.2054 28.4053 6.66553 28.4053H14.9974Z" fill="#FFBB01"/>
<path d="M18.3301 28.4053H24.1625C24.6226 28.4053 24.9957 28.0326 24.9957 27.5721C24.9957 27.112 24.6226 26.7389 24.1625 26.7389H18.3301C17.87 26.7389 17.4969 27.112 17.4969 27.5721C17.4969 28.0326 17.87 28.4053 18.3301 28.4053Z" fill="#FFBB01"/>
<path d="M37.4936 38.4036C37.0335 38.4036 36.6604 38.7767 36.6604 39.2368V47.5687C36.6604 48.0292 36.2874 48.4019 35.8272 48.4019H2.49957C2.03945 48.4019 1.66638 48.0292 1.66638 47.5687V2.57636C1.66638 2.11623 2.03945 1.74317 2.49957 1.74317H35.8272C36.2874 1.74317 36.6604 2.11623 36.6604 2.57636V18.2239C36.6604 18.684 37.0335 19.0571 37.4936 19.0571C37.9537 19.0571 38.3268 18.684 38.3268 18.2239V2.57636C38.3268 1.19598 37.2076 0.0767822 35.8272 0.0767822H2.49957C1.11919 0.0767822 0 1.19598 0 2.57636V47.5687C0 48.9495 1.11919 50.0683 2.49957 50.0683H35.8272C37.2076 50.0683 38.3268 48.9495 38.3268 47.5687V39.2368C38.3268 38.7767 37.9537 38.4036 37.4936 38.4036Z" fill="#FFBB01"/>
</svg>
