<svg width="50" height="51" viewBox="0 0 50 51" fill="none" xmlns="http://www.w3.org/2000/svg">
<path d="M48.3277 35.7036V33.4037H49.1609C49.3908 33.4053 49.6109 33.3117 49.7692 33.1453C49.9107 32.987 49.9909 32.7828 49.9941 32.5704L48.5026 4.24037C48.3606 1.94734 46.459 0.160034 44.1615 0.160034C41.864 0.160034 39.9624 1.94734 39.8204 4.24037L38.3288 32.5704C38.3219 32.7974 38.4025 33.018 38.5538 33.1872C38.719 33.3381 38.9383 33.4163 39.1621 33.4037H39.9953V35.7036L38.4204 38.8616C38.3016 39.0972 38.3016 39.3755 38.4204 39.6114L43.4198 49.6103C43.4605 49.7022 43.5203 49.7844 43.5947 49.8519C43.692 49.9419 43.8092 50.0078 43.9365 50.0436H44.3946C44.5224 50.0078 44.6395 49.9419 44.7364 49.8519C44.8112 49.7844 44.8706 49.7022 44.9113 49.6103L49.9107 39.6114C50.0295 39.3755 50.0295 39.0972 49.9107 38.8616L48.3277 35.7036ZM40.0368 31.7372L40.3871 25.0713H47.9359L48.3277 31.7372H40.0368ZM41.4868 4.28228C41.4868 2.80499 42.6842 1.60721 44.1615 1.60721C45.6388 1.60721 46.8362 2.80499 46.8362 4.28228L47.8443 23.4467H40.4787L40.5702 21.7802H45.2112C45.6717 21.7802 46.0444 21.4072 46.0444 20.947C46.0444 20.4865 45.6717 20.1138 45.2112 20.1138H40.6536L41.4868 4.28228ZM46.6612 33.4037V35.0701H41.6618V33.4037H46.6612ZM44.9947 45.7024V40.0695H45.828C46.2881 40.0695 46.6612 39.6965 46.6612 39.2363C46.6612 38.7762 46.2881 38.4031 45.828 38.4031H42.495C42.0349 38.4031 41.6618 38.7762 41.6618 39.2363C41.6618 39.6965 42.0349 40.0695 42.495 40.0695H43.3283V45.7024L40.0954 39.2363L41.3453 36.7366H46.9777L48.2276 39.2363L44.9947 45.7024Z" fill="#FFBB01"/>
<path d="M28.3301 10.9063C28.7902 10.9063 29.1633 10.5332 29.1633 10.073C29.1633 9.61289 28.7902 9.23981 28.3301 9.23981H6.66594C6.20579 9.23981 5.8327 9.61289 5.8327 10.073V13.406C5.8327 13.8661 6.20579 14.2392 6.66594 14.2392H28.3301C28.7902 14.2392 29.1633 13.8661 29.1633 13.406C29.1633 12.9458 28.7902 12.5727 28.3301 12.5727H7.49917V10.9063H28.3301Z" fill="#FFBB01"/>
<path d="M29.1633 18.4054C29.1633 17.9452 28.7902 17.5721 28.3301 17.5721H9.99889C9.53873 17.5721 9.16565 17.9452 9.16565 18.4054C9.16565 18.8655 9.53873 19.2386 9.99889 19.2386H28.3301C28.7902 19.2386 29.1633 18.8655 29.1633 18.4054Z" fill="#FFBB01"/>
<path d="M4.99945 22.5715C4.99945 23.0317 5.37254 23.4048 5.83269 23.4048H19.1645C19.6246 23.4048 19.9977 23.0317 19.9977 22.5715C19.9977 22.1114 19.6246 21.7383 19.1645 21.7383H5.83269C5.37254 21.7383 4.99945 22.1114 4.99945 22.5715Z" fill="#FFBB01"/>
<path d="M24.1639 21.7383C23.7038 21.7383 23.3307 22.1114 23.3307 22.5715C23.3307 23.0317 23.7038 23.4048 24.1639 23.4048H27.4969C27.957 23.4048 28.3301 23.0317 28.3301 22.5715C28.3301 22.1114 27.957 21.7383 27.4969 21.7383H24.1639Z" fill="#FFBB01"/>
<path d="M16.6648 26.7377C16.6648 26.2776 16.2917 25.9045 15.8315 25.9045H5.83269C5.37254 25.9045 4.99945 26.2776 4.99945 26.7377C4.99945 27.1978 5.37254 27.5709 5.83269 27.5709H15.8315C16.2917 27.5709 16.6648 27.1978 16.6648 26.7377Z" fill="#FFBB01"/>
<path d="M15.8315 30.904C15.8315 30.4438 15.4584 30.0707 14.9983 30.0707H5.83269C5.37254 30.0707 4.99945 30.4438 4.99945 30.904C4.99945 31.3641 5.37254 31.7372 5.83269 31.7372H14.9983C15.4584 31.7372 15.8315 31.3641 15.8315 30.904Z" fill="#FFBB01"/>
<path d="M5.83269 34.2369C5.37254 34.2369 4.99945 34.61 4.99945 35.0701C4.99945 35.5303 5.37254 35.9034 5.83269 35.9034H11.6653C12.1255 35.9034 12.4986 35.5303 12.4986 35.0701C12.4986 34.61 12.1255 34.2369 11.6653 34.2369H5.83269Z" fill="#FFBB01"/>
<path d="M32.4962 0.0741577H2.49971C1.11925 0.0741577 0 1.19341 0 2.57387V40.9027C0 42.2832 1.11925 43.4025 2.49971 43.4025H16.6647C17.1249 43.4025 17.498 43.0294 17.498 42.5692C17.498 42.1091 17.1249 41.736 16.6647 41.736H2.49971C2.03956 41.736 1.66647 41.3629 1.66647 40.9027V7.57329H33.3295V40.9027C33.3295 41.3629 32.9564 41.736 32.4962 41.736H29.9965C29.5364 41.736 29.1633 42.1091 29.1633 42.5692C29.1633 43.0294 29.5364 43.4025 29.9965 43.4025H32.4962C33.8767 43.4025 34.9959 42.2832 34.9959 40.9027V2.57387C34.9959 1.19341 33.8767 0.0741577 32.4962 0.0741577ZM1.66647 5.90681V2.57387C1.66647 2.11372 2.03956 1.74063 2.49971 1.74063H32.4962C32.9564 1.74063 33.3295 2.11372 33.3295 2.57387V5.90681H1.66647Z" fill="#FFBB01"/>
<path d="M23.3306 30.9039C21.9501 30.9039 20.8309 32.0231 20.8309 33.4036C20.8309 34.784 21.9501 35.9033 23.3306 35.9033C24.711 35.9033 25.8303 34.784 25.8303 33.4036C25.8303 32.0231 24.711 30.9039 23.3306 30.9039ZM23.3306 34.2368C22.8704 34.2368 22.4973 33.8637 22.4973 33.4036C22.4973 32.9434 22.8704 32.5703 23.3306 32.5703C23.7907 32.5703 24.1638 32.9434 24.1638 33.4036C24.1638 33.8637 23.7907 34.2368 23.3306 34.2368Z" fill="#FFBB01"/>
<path d="M29.9965 33.4036C29.9953 32.4776 29.4826 31.6277 28.6632 31.1956C28.9358 30.3103 28.6966 29.3473 28.042 28.6922C27.3869 28.0376 26.4239 27.7984 25.5386 28.071C25.1049 27.254 24.2558 26.743 23.3306 26.743C22.4054 26.743 21.5563 27.254 21.1226 28.071C20.2373 27.7984 19.2743 28.0376 18.6192 28.6922C17.9646 29.3473 17.7254 30.3103 17.998 31.1956C17.1806 31.6293 16.67 32.4784 16.67 33.4036C16.67 34.3288 17.1806 35.1783 17.998 35.6116C17.7254 36.4949 17.9626 37.4563 18.6143 38.1113C18.7771 38.2736 18.9622 38.4111 19.1644 38.5198V49.2351C19.166 49.5716 19.3699 49.8739 19.6811 50.0016C19.9911 50.1322 20.3496 50.063 20.5892 49.8267L23.3306 47.0771L26.072 49.8267C26.229 49.9829 26.4422 50.0695 26.6635 50.0683C26.773 50.0712 26.8812 50.0484 26.9801 50.0016C27.2913 49.8739 27.4951 49.5716 27.4968 49.2351V38.5279C27.699 38.4193 27.8841 38.2818 28.0468 38.1198C28.6986 37.4644 28.9358 36.5034 28.6632 35.6201C29.4851 35.1864 29.9985 34.3328 29.9965 33.4036ZM23.9222 45.3106C23.7659 45.1527 23.5527 45.064 23.3306 45.064C23.1084 45.064 22.8953 45.1527 22.739 45.3106L20.8309 47.2269V38.8115L21.1226 38.7362C21.5563 39.5536 22.4054 40.0642 23.3306 40.0642C24.2558 40.0642 25.1049 39.5536 25.5386 38.7362L25.8303 38.8115V47.2269L23.9222 45.3106ZM27.4968 34.2368H27.3552C27.0159 34.2352 26.7091 34.4394 26.5801 34.7535C26.452 35.0656 26.5244 35.424 26.7636 35.6616L26.8637 35.7617C27.1867 36.0868 27.1867 36.6116 26.8637 36.9367C26.7718 37.0331 26.657 37.1047 26.5301 37.145H26.4052C26.1428 37.1857 25.8767 37.099 25.6887 36.9115L25.5886 36.8114C25.3502 36.5714 24.9901 36.4989 24.6777 36.6287C24.3648 36.7585 24.1618 37.0649 24.1638 37.4034V37.5698C24.1638 38.0299 23.7907 38.403 23.3306 38.403C22.8704 38.403 22.4974 38.0299 22.4974 37.5698V37.4282C22.499 37.0889 22.2947 36.7821 21.9806 36.6531C21.8802 36.6133 21.7723 36.5937 21.6641 36.595C21.4428 36.5937 21.2296 36.6808 21.0725 36.8366L20.9725 36.9367C20.7845 37.1243 20.5184 37.2109 20.256 37.1698H20.1311C20.0041 37.13 19.8894 37.0584 19.7975 36.9615C19.4744 36.6364 19.4744 36.1116 19.7975 35.7865L19.9061 35.6869C20.1453 35.4488 20.2177 35.0904 20.0892 34.7783C19.9602 34.4647 19.6538 34.26 19.3145 34.262H19.1644C18.7043 34.262 18.3312 33.889 18.3312 33.4288C18.3312 32.9683 18.7043 32.5956 19.1644 32.5956H19.306C19.6453 32.5972 19.9521 32.3926 20.081 32.0789C20.2092 31.7668 20.1368 31.4084 19.8976 31.1704L19.7975 31.0707C19.4708 30.746 19.4691 30.2183 19.7934 29.8916C20.1181 29.5649 20.6458 29.5629 20.9725 29.8876L21.0725 29.9958C21.3102 30.235 21.669 30.3074 21.9806 30.1789C22.2947 30.0499 22.499 29.7435 22.4974 29.4042V29.2374C22.4974 28.7773 22.8704 28.4042 23.3306 28.4042C23.7907 28.4042 24.1638 28.7773 24.1638 29.2374V29.379C24.1622 29.7187 24.3664 30.0251 24.6805 30.154C24.9922 30.2822 25.351 30.2102 25.5886 29.9706L25.6887 29.8709C26.013 29.5442 26.5411 29.5421 26.8678 29.8664C27.1945 30.1911 27.1961 30.7188 26.8718 31.0455L26.7636 31.1455C26.5244 31.3832 26.452 31.742 26.5801 32.0536C26.7091 32.3677 27.0159 32.572 27.3552 32.5704H27.4968C27.9569 32.5704 28.33 32.9434 28.33 33.4036C28.33 33.8637 27.9569 34.2368 27.4968 34.2368Z" fill="#FFBB01"/>
</svg>
