<svg width="50" height="50" viewBox="0 0 50 50" fill="none" xmlns="http://www.w3.org/2000/svg">
<path d="M49.1667 24.2351H30.1082C29.648 24.2351 29.2749 24.6082 29.2749 25.0684C29.2749 25.5286 29.648 25.9018 30.1082 25.9018H48.3333V34.2351H44.1667V28.4018C44.1667 27.9416 43.7935 27.5684 43.3333 27.5684C42.8731 27.5684 42.5 27.9416 42.5 28.4018V34.2351H20V25.9018H25C25.4602 25.9018 25.8333 25.5286 25.8333 25.0684C25.8333 24.6082 25.4602 24.2351 25 24.2351H19.1667C18.7065 24.2351 18.3333 24.6082 18.3333 25.0684V35.0684C18.3333 35.5286 18.7065 35.9018 19.1667 35.9018H26.6667V37.5684H19.1667C18.7065 37.5684 18.3333 37.9416 18.3333 38.4018V44.2351H15.8333V43.4018C15.8333 42.9416 15.4602 42.5684 15 42.5684H12.5V38.4018C12.5 37.9416 12.1269 37.5684 11.6667 37.5684C11.2065 37.5684 10.8333 37.9416 10.8333 38.4018V43.4018C10.8333 43.862 11.2065 44.2351 11.6667 44.2351H14.1667V45.9018H5.83333V44.2351H8.33333C8.79354 44.2351 9.16667 43.862 9.16667 43.4018V38.4018C9.16667 37.9416 8.79354 37.5684 8.33333 37.5684C7.87313 37.5684 7.5 37.9416 7.5 38.4018V42.5684H5C4.53979 42.5684 4.16667 42.9416 4.16667 43.4018V44.2351H0.833333C0.373128 44.2351 0 44.6082 0 45.0684C0 45.5286 0.373128 45.9018 0.833333 45.9018H4.16667V46.7351C4.16667 47.1953 4.53979 47.5684 5 47.5684H15C15.4602 47.5684 15.8333 47.1953 15.8333 46.7351V45.9018H18.3333V48.4018C18.3333 48.862 18.7065 49.2351 19.1667 49.2351H49.1667C49.6269 49.2351 50 48.862 50 48.4018V38.4018C50 37.9416 49.6269 37.5684 49.1667 37.5684H41.6667V35.9018H49.1667C49.6269 35.9018 50 35.5286 50 35.0684V25.0684C50 24.6082 49.6269 24.2351 49.1667 24.2351ZM48.3333 47.5684H20V39.2351H42.5V45.0684C42.5 45.5286 42.8731 45.9018 43.3333 45.9018C43.7935 45.9018 44.1667 45.5286 44.1667 45.0684V39.2351H48.3333V47.5684ZM40 37.5684H28.3333V35.9018H40V37.5684Z" fill="#FFBB01"/>
<path d="M24.9999 27.5684C23.6193 27.5684 22.4999 28.6878 22.4999 30.0684C22.4999 31.4494 23.6193 32.5684 24.9999 32.5684C26.3805 32.5684 27.4999 31.4494 27.4999 30.0684C27.4999 28.6878 26.3805 27.5684 24.9999 27.5684ZM24.9999 30.9018C24.5397 30.9018 24.1665 30.5286 24.1665 30.0684C24.1665 29.6082 24.5397 29.2351 24.9999 29.2351C25.4601 29.2351 25.8332 29.6082 25.8332 30.0684C25.8332 30.5286 25.4601 30.9018 24.9999 30.9018Z" fill="#FFBB01"/>
<path d="M30.0001 32.5684C30.4603 32.5684 30.8334 32.1953 30.8334 31.7351V28.4018C30.8334 27.9415 30.4603 27.5684 30.0001 27.5684C29.5399 27.5684 29.1667 27.9415 29.1667 28.4018V31.7351C29.1667 32.1953 29.5399 32.5684 30.0001 32.5684Z" fill="#FFBB01"/>
<path d="M34.1667 31.7351V28.4018C34.1667 27.9415 33.7935 27.5684 33.3333 27.5684C32.8731 27.5684 32.5 27.9415 32.5 28.4018V31.7351C32.5 32.1953 32.8731 32.5684 33.3333 32.5684C33.7935 32.5684 34.1667 32.1953 34.1667 31.7351Z" fill="#FFBB01"/>
<path d="M37.4999 31.7351V28.4018C37.4999 27.9415 37.1268 27.5684 36.6666 27.5684C36.2064 27.5684 35.8333 27.9415 35.8333 28.4018V31.7351C35.8333 32.1953 36.2064 32.5684 36.6666 32.5684C37.1268 32.5684 37.4999 32.1953 37.4999 31.7351Z" fill="#FFBB01"/>
<path d="M40.8332 31.7351V28.4018C40.8332 27.9415 40.46 27.5684 39.9998 27.5684C39.5396 27.5684 39.1665 27.9415 39.1665 28.4018V31.7351C39.1665 32.1953 39.5396 32.5684 39.9998 32.5684C40.46 32.5684 40.8332 32.1953 40.8332 31.7351Z" fill="#FFBB01"/>
<path d="M26.6665 42.5685C26.2063 42.5685 25.8332 42.9416 25.8332 43.4018C25.8332 43.862 25.4601 44.2351 24.9999 44.2351C24.5397 44.2351 24.1665 43.862 24.1665 43.4018C24.1665 42.9416 24.5397 42.5685 24.9999 42.5685C25.4601 42.5685 25.8332 42.1953 25.8332 41.7351C25.8332 41.2749 25.4601 40.9018 24.9999 40.9018C23.6193 40.9018 22.4999 42.0212 22.4999 43.4018C22.4999 44.7828 23.6193 45.9018 24.9999 45.9018C26.3805 45.9018 27.4999 44.7828 27.4999 43.4018C27.4999 42.9416 27.1267 42.5685 26.6665 42.5685Z" fill="#FFBB01"/>
<path d="M30.0001 40.9018C29.5399 40.9018 29.1667 41.2749 29.1667 41.7351V45.0685C29.1667 45.5287 29.5399 45.9018 30.0001 45.9018C30.4603 45.9018 30.8334 45.5287 30.8334 45.0685V41.7351C30.8334 41.2749 30.4603 40.9018 30.0001 40.9018Z" fill="#FFBB01"/>
<path d="M33.3333 40.9018C32.8731 40.9018 32.5 41.2749 32.5 41.7351V45.0685C32.5 45.5287 32.8731 45.9018 33.3333 45.9018C33.7935 45.9018 34.1667 45.5287 34.1667 45.0685V41.7351C34.1667 41.2749 33.7935 40.9018 33.3333 40.9018Z" fill="#FFBB01"/>
<path d="M36.6666 40.9018C36.2064 40.9018 35.8333 41.2749 35.8333 41.7351V45.0685C35.8333 45.5287 36.2064 45.9018 36.6666 45.9018C37.1268 45.9018 37.4999 45.5287 37.4999 45.0685V41.7351C37.4999 41.2749 37.1268 40.9018 36.6666 40.9018Z" fill="#FFBB01"/>
<path d="M39.9998 40.9018C39.5396 40.9018 39.1665 41.2749 39.1665 41.7351V45.0685C39.1665 45.5287 39.5396 45.9018 39.9998 45.9018C40.46 45.9018 40.8332 45.5287 40.8332 45.0685V41.7351C40.8332 41.2749 40.46 40.9018 39.9998 40.9018Z" fill="#FFBB01"/>
<path d="M6.31676 29.9102C6.42703 29.959 6.54625 29.9843 6.66669 29.9851C7.05284 29.9794 7.38406 29.7088 7.46747 29.332C7.55048 28.9548 7.36412 28.5703 7.01663 28.4018C3.09939 26.6066 0.961124 22.3256 1.8795 18.1154C2.79747 13.9052 6.52428 10.9031 10.8334 10.9018C11.6789 10.9014 12.5204 11.019 13.3334 11.2518C13.7484 11.3718 14.1858 11.1545 14.3417 10.7521C16.4388 5.31264 21.6704 1.72784 27.5 1.73517C34.1398 1.76772 39.8771 6.38198 41.3334 12.8602C41.4079 13.1943 41.6789 13.4486 42.0166 13.5019C45.6535 14.083 48.3305 17.219 48.3334 20.9018C48.3297 21.1443 48.313 21.3865 48.2833 21.6269C48.2528 21.8507 48.3146 22.0778 48.4542 22.2552C48.5942 22.4326 48.8001 22.5457 49.0251 22.5685C49.2477 22.5917 49.4702 22.5246 49.6424 22.3817C49.8149 22.2393 49.9227 22.0334 49.9418 21.8104C49.9785 21.5089 49.998 21.2058 50 20.9018C50.0171 16.605 47.0309 12.8794 42.8333 11.9602C41.0034 4.98224 34.714 0.104308 27.5 0.0685008C21.2403 0.0485627 15.5636 3.73915 13.0416 9.46873C12.3161 9.31289 11.5755 9.23435 10.8334 9.23517C5.74547 9.24046 1.34687 12.7858 0.260847 17.7565C-0.824765 22.7272 1.69436 27.7838 6.31676 29.9102Z" fill="#FFBB01"/>
<path d="M13.3333 30.5771C13.4021 30.5889 13.4729 30.5889 13.5417 30.5771C14.4918 30.3354 15.4032 29.9622 16.25 29.4687C16.4416 29.3572 16.5808 29.1741 16.637 28.96C16.6931 28.7456 16.6618 28.5181 16.5499 28.3269C16.3184 27.933 15.813 27.7992 15.4167 28.027C14.6989 28.4429 13.9278 28.7599 13.125 28.9686C12.6648 29.026 12.3385 29.4459 12.3958 29.9061C12.4532 30.3663 12.8731 30.6926 13.3333 30.6353V30.5771Z" fill="#FFBB01"/>
<path d="M10.0001 35.9018C10.4603 35.9018 10.8335 35.5286 10.8335 35.0684V21.9854L12.6417 24.6937C12.7951 24.9264 13.0547 25.0672 13.3335 25.0684C13.4974 25.0705 13.6578 25.0208 13.7916 24.9268C14.1721 24.6725 14.2762 24.1594 14.0252 23.7769L10.6919 18.7769C10.6919 18.7769 10.6919 18.7769 10.6499 18.735C10.4921 18.5381 10.2528 18.4233 10.0001 18.4233C9.74744 18.4233 9.50818 18.5381 9.3503 18.735C9.3503 18.735 9.3503 18.735 9.30839 18.7769L5.97506 23.7769C5.77161 24.1562 5.89043 24.6278 6.24931 24.8654C6.60779 25.103 7.08834 25.0286 7.35852 24.6937L9.16679 21.9854V35.0684C9.16679 35.5286 9.53992 35.9018 10.0001 35.9018Z" fill="#FFBB01"/>
<path d="M31.2914 15.2101C30.9094 14.959 30.3959 15.0632 30.1415 15.4436L28.3333 18.152V8.40181C28.3333 7.94161 27.9602 7.56848 27.4999 7.56848C27.0397 7.56848 26.6666 7.94161 26.6666 8.40181V18.152L24.8584 15.4436C24.7086 15.1649 24.4144 14.9948 24.0983 15.0046C23.7821 15.0144 23.4989 15.2019 23.3667 15.4892C23.2348 15.7765 23.2767 16.1138 23.4749 16.3604L26.8082 21.3604C26.9632 21.5907 27.2224 21.7286 27.4999 21.7286C27.7775 21.7286 28.0366 21.5907 28.1917 21.3604L31.525 16.3604C31.7761 15.9779 31.6719 15.4644 31.2914 15.2101Z" fill="#FFBB01"/>
</svg>
